<?xml version="1.0" encoding="UTF-8"?>
<svg xmlns="http://www.w3.org/2000/svg" xmlns:xlink="http://www.w3.org/1999/xlink" width="382pt" height="355.08pt" viewBox="0 0 382 355.08" version="1.1">
<defs>
<clipPath id="clip1">
  <path d="M 0 0 L 382 0 L 382 355.078125 L 0 355.078125 Z M 0 0 "/>
</clipPath>
</defs>
<g id="surface1">
<g clip-path="url(#clip1)" clip-rule="nonzero">
<path style=" stroke:none;fill-rule:evenodd;fill:rgb(0.799561%,0.799561%,0.799561%);fill-opacity:1;" d="M 208 2.078125 C 192.710938 -2.761719 186.410156 2.140625 182.960938 3.679688 L 180.5 3.828125 C 181.179688 4.28125 181.949219 4.121094 182.960938 3.679688 Z M 234 9.078125 C 226.730469 3.128906 226.839844 13.691406 226.277344 15.589844 L 226 15.828125 C 226.121094 15.949219 226.210938 15.851563 226.277344 15.589844 Z M 266 29.078125 C 262 24.078125 253 17.078125 250 17.078125 L 248 17.078125 C 245 25.078125 256 25.078125 258 27.078125 C 261 30.078125 268 35.078125 268 37.078125 C 268 40.078125 267 41.078125 266 45.078125 C 269 45.078125 274 51.078125 274 53.078125 C 274 53.078125 272 61.078125 269 61.078125 C 267 61.078125 255 53.078125 248 48.078125 C 253 57.078125 261 61.078125 268 63.078125 C 269 64.078125 272 62.078125 274 63.078125 C 279 66.078125 287 73.078125 287 75.078125 C 287 78.078125 286 77.078125 286 78.078125 L 276 78.078125 C 273 78.078125 267 70.078125 263 69.078125 C 258 67.078125 252 66.078125 249 63.078125 C 245 61.078125 240 57.078125 236 55.078125 C 232 53.078125 227 52.078125 223 50.078125 C 216 47.078125 205 46.078125 203 46.078125 C 200 46.078125 187 51.078125 179 53.078125 C 174 55.078125 168 54.078125 163 54.078125 C 162 57.078125 161 60.078125 159 61.078125 C 155 64.078125 148 68.078125 146 68.078125 C 143 68.078125 144 68.078125 143 67.078125 C 144 65.078125 145 63.078125 145 62.078125 C 143 63.078125 141 66.078125 138 66.078125 C 136 66.078125 138 64.078125 136 64.078125 C 133 64.078125 121 79.078125 114 87.078125 C 111 90.078125 111 95.078125 110 99.078125 C 110 103.078125 109 107.078125 109 110.078125 C 109 113.078125 108 118.078125 108 120.078125 C 108 123.078125 108 134.078125 112 139.078125 C 122 153.078125 138 165.078125 150 178.078125 C 155 183.078125 154 194.078125 156 199.078125 L 156 218.078125 C 155 223.078125 154 229.078125 150 234.078125 C 147 238.078125 138 247.078125 135 247.078125 C 132 247.078125 130 243.078125 127 243.078125 C 125 243.078125 120 254.078125 114 258.078125 C 85 279.078125 53 287.078125 25 306.078125 C 12 314.078125 0 339.078125 0 351.078125 C 0 353.078125 1 354.078125 2 355.078125 L 382 355.078125 L 382 349.078125 C 382 346.078125 379 338.078125 376 335.078125 C 373 330.078125 367 326.078125 365 322.078125 C 359 310.078125 352 292.078125 341 284.078125 C 330 276.078125 315 275.078125 304 270.078125 C 287 263.078125 269 254.078125 254 254.078125 C 253 246.078125 251 233.078125 251 231.078125 C 251 228.078125 251 221.078125 252 218.078125 C 256 206.078125 256 192.078125 266 183.078125 C 268 181.078125 272 182.078125 274 181.078125 C 279 179.078125 284 174.078125 287 170.078125 C 292 161.078125 288 151.078125 291 143.078125 C 294 134.078125 300 126.078125 306 119.078125 C 307 116.078125 310 116.078125 310 115.078125 C 313 108.078125 317 97.078125 317 95.078125 C 317 90.078125 305 86.078125 304 84.078125 C 302 80.078125 301 76.078125 299 73.078125 C 296 72.078125 291 73.078125 288 70.078125 C 283 67.078125 282 59.078125 280 55.078125 C 277 45.078125 272 36.078125 266 29.078125 Z M 206 59.078125 C 233 58.078125 264 77.078125 264 100.078125 C 264 103.078125 260 115.078125 260 118.078125 C 260 120.078125 270 146.078125 270 149.078125 C 270 154.078125 265 156.078125 261 165.078125 C 258 169.078125 261 175.078125 255 179.078125 C 253 180.078125 250 180.078125 247 180.078125 C 247 180.078125 246 179.078125 246 182.078125 C 246 184.078125 250 190.078125 251 194.078125 C 250 195.078125 251 196.078125 248 196.078125 C 246 196.078125 242 191.078125 239 191.078125 C 237 191.078125 236 194.078125 234 194.078125 C 229 196.078125 221 197.078125 219 197.078125 C 216 197.078125 210 193.078125 207 193.078125 C 205 193.078125 203 195.078125 201 195.078125 C 198 195.078125 195 190.078125 192 190.078125 C 190 190.078125 190 192.078125 189 192.078125 C 182 194.078125 168 193.078125 168 205.078125 C 168 209.078125 170 210.078125 172 210.078125 C 176 210.078125 179 203.078125 188 203.078125 C 191 203.078125 194 204.078125 196 204.078125 C 202 205.078125 213 204.078125 216 204.078125 C 220 204.078125 228 202.078125 233 206.078125 C 235 208.078125 236 212.078125 238 215.078125 C 239 217.078125 244 219.078125 244 222.078125 C 244 224.078125 240 225.078125 238 228.078125 C 236 229.078125 237 232.078125 236 234.078125 C 235 236.078125 220 243.078125 218 243.078125 C 216 243.078125 213 239.078125 211 239.078125 C 208 239.078125 203 243.078125 201 243.078125 C 198 243.078125 189 241.078125 183 239.078125 L 181 241.078125 C 186 246.078125 196 254.078125 198 254.078125 C 201 254.078125 206 250.078125 208 250.078125 C 213 250.078125 214 251.078125 214 254.078125 C 214 263.078125 199 265.078125 196 264.078125 C 196 265.078125 195 267.078125 196 270.078125 L 207 270.078125 C 209 269.078125 208 268.078125 211 268.078125 L 217 268.078125 C 217 271.078125 217 275.078125 218 278.078125 C 222 277.078125 223 272.078125 223 270.078125 C 223 268.078125 220 265.078125 220 263.078125 C 220 259.078125 235 244.078125 237 244.078125 C 240 244.078125 241 246.078125 241 249.078125 C 241 251.078125 238 256.078125 237 261.078125 C 238 262.078125 237 263.078125 240 263.078125 C 242 263.078125 241 261.078125 244 261.078125 C 246 261.078125 248 263.078125 248 266.078125 C 248 267.078125 243 272.078125 242 276.078125 C 241 278.078125 242 283.078125 241 287.078125 C 234 290.078125 214 297.078125 204 297.078125 C 195 297.078125 164 286.078125 161 284.078125 C 158 283.078125 158 279.078125 156 278.078125 C 151.011719 272.089844 144.03125 267.097656 139.03125 260.121094 L 134.828125 251.578125 C 137.679688 250.75 141.019531 250.269531 144 249.078125 C 155 246.078125 158 232.078125 162 224.078125 C 164 221.078125 164 216.078125 164 213.078125 C 164 211.078125 161 200.078125 161 198.078125 C 161 195.078125 162 193.078125 164 190.078125 C 161 184.078125 159 188.078125 159 182.078125 C 159 180.078125 163 176.078125 163 174.078125 C 163 171.078125 160 164.078125 158 160.078125 C 157 157.078125 154 157.078125 153 155.078125 C 150 150.078125 148 142.078125 148 140.078125 C 148 137.078125 152 130.078125 152 125.078125 C 152 122.078125 153 118.078125 153 115.078125 C 154 108.078125 157 100.078125 159 92.078125 C 162 85.078125 164 76.078125 169 70.078125 C 171 67.078125 175 68.078125 178 66.078125 C 179 66.078125 180 63.078125 183 62.078125 C 187 59.078125 195 58.078125 197 58.078125 C 200 58.078125 203 59.078125 206 59.078125 Z M 297 82.078125 C 295 82.078125 293 79.078125 292 77.078125 C 293 77.078125 297 78.078125 297 82.078125 Z M 128 98.578125 L 124 101.078125 C 123 103.078125 127.171875 104.078125 124.171875 107.25 C 123.171875 106.25 119.328125 104.910156 117.328125 105.410156 C 116.011719 105.738281 122.671875 101 120.5 101.578125 C 118 102.25 121.089844 96.960938 123 96.410156 Z M 304 107.078125 C 304 110.078125 303 109.078125 303 111.078125 C 302 111.078125 302 112.078125 300 112.078125 C 297 112.078125 295 108.078125 294 106.078125 L 294 101.078125 C 295 101.078125 295 100.078125 298 100.078125 C 300 100.078125 304 105.078125 304 107.078125 Z M 139 139.078125 C 139 143.078125 134 150.078125 137 153.078125 C 132 151.078125 133 145.078125 133 144.078125 C 133 141.078125 132 137.078125 136 136.078125 C 138 137.078125 139 137.078125 139 139.078125 Z M 263 269.078125 C 265 271.078125 268 270.078125 269 270.078125 C 272 273.078125 276 278.078125 276 280.078125 C 276 283.078125 275 283.078125 275 285.078125 C 274 285.078125 273 286.078125 270 286.078125 C 266 286.078125 256 268.078125 256 267.078125 C 256 264.078125 256 264.078125 258 263.078125 C 260 265.078125 261 268.078125 263 269.078125 Z M 190 107.078125 C 186 105.078125 180 105.078125 178 105.078125 C 173 105.078125 171 111.078125 168 111.078125 C 165 111.078125 165 110.078125 164 110.078125 L 164 120.078125 C 165 122.078125 166 124.078125 168 124.078125 C 171 124.078125 171 122.078125 173 122.078125 C 176 122.078125 176 123.078125 177 123.078125 L 177 129.078125 C 181 127.078125 184 125.078125 186 124.078125 C 187 126.078125 189 130.078125 191 130.078125 C 197 130.078125 201 125.078125 201 119.078125 C 201 117.078125 194 108.078125 190 107.078125 Z M 254 112.078125 C 254 109.078125 250 108.078125 247 108.078125 C 245 108.078125 233 107.078125 228 110.078125 C 223 112.078125 222 120.078125 216 122.078125 C 216 127.078125 213 134.078125 213 137.078125 C 213 139.078125 214 141.078125 216 142.078125 C 218 139.078125 219 135.078125 222 132.078125 C 224 132.078125 227 132.078125 229 130.078125 C 231 128.078125 234 125.078125 236 124.078125 C 237 127.078125 237 130.078125 238 133.078125 L 241 133.078125 C 242 132.078125 243 129.078125 245 129.078125 C 248 129.078125 247 131.078125 249 131.078125 C 252 131.078125 249 119.078125 250 118.078125 C 251 115.078125 254 115.078125 254 112.078125 Z M 188 139.078125 L 188 136.078125 C 183 137.078125 181 137.078125 179 138.078125 L 179 141.078125 C 180 141.078125 179 142.078125 182 142.078125 C 184 142.078125 186 141.078125 188 139.078125 Z M 226 153.078125 L 222 152.078125 L 222 155.078125 C 223 156.078125 225 157.078125 226 157.078125 Z M 199 165.078125 C 198 165.078125 197 164.078125 195 164.078125 C 192 164.078125 188 165.078125 185 165.078125 C 185 166.078125 184 167.078125 184 168.078125 C 186 170.078125 189 172.078125 191 172.078125 C 194 172.078125 200 170.078125 200 167.078125 C 200 165.078125 199 166.078125 199 165.078125 Z M 223 166.078125 C 221 165.078125 219 164.078125 217 164.078125 C 215 164.078125 208 169.078125 208 173.078125 C 208 175.078125 217 183.078125 220 188.078125 L 223 188.078125 L 223 184.078125 C 221 181.078125 216 178.078125 216 175.078125 C 216 173.078125 222 169.078125 223 166.078125 Z M 208 182.078125 C 208 179.078125 202 178.078125 201 178.078125 C 198 178.078125 197 179.078125 196 180.078125 C 195 183.078125 200 186.078125 203 186.078125 C 204 186.078125 208 186.078125 208 182.078125 Z M 207 213.078125 C 205 213.078125 198 211.078125 195 211.078125 C 193 211.078125 193 213.078125 192 214.078125 L 192 221.078125 L 197 221.078125 C 200 221.078125 208 220.078125 212 219.078125 C 215 218.078125 218 216.078125 220 214.078125 L 217 212.078125 C 214 212.078125 210 213.078125 207 213.078125 Z M 186 268.078125 L 186 262.078125 C 180 265.078125 179 268.078125 179 271.078125 C 179 273.078125 181 275.078125 183 275.078125 C 184 273.078125 185 271.078125 186 268.078125 Z M 154 51.078125 C 156 43.078125 159 37.078125 160 30.078125 C 155 31.078125 151 42.078125 151 48.078125 C 151 50.078125 151 51.078125 152 52.078125 C 153 51.078125 154 51.078125 154 51.078125 Z M 229 35.078125 C 223 30.078125 212 31.078125 207 31.078125 C 200 31.078125 187 30.078125 184 37.078125 C 194 35.078125 207 33.078125 209 33.078125 C 216 33.078125 222 38.078125 227 38.078125 C 230 38.078125 229 38.078125 230 37.078125 C 229 36.078125 229 35.078125 229 35.078125 "/>
</g>
</g>
</svg>
